<?xml version="1.0" encoding="UTF-8"?>
<svg id="_레이어_2" data-name="레이어 2" xmlns="http://www.w3.org/2000/svg" viewBox="0 0 288.11 78.31">
  <defs>
    <style>
      .cls-1 {
        fill: #8e7bed;
      }

      .cls-1, .cls-2 {
        stroke-width: 0px;
      }

      .cls-2 {
        fill: #fff;
      }
    </style>
  </defs>
  <g id="_레이어_1-2" data-name="레이어 1">
    <g>
      <g>
        <path class="cls-1" d="M76.28,72.32l11.05-35.09h9.16l11.05,35.09h-8.08l-4.72-17.9c-.5-1.79-.99-3.68-1.46-5.64-.47-1.97-.94-3.86-1.42-5.69h-.19c-.44,1.86-.91,3.76-1.39,5.71-.49,1.95-.97,3.83-1.44,5.62l-4.72,17.9h-7.84ZM83.46,63.77v-5.95h16.81v5.95h-16.81Z"/>
        <path class="cls-1" d="M120.35,72.98c-2.2,0-4.13-.56-5.79-1.68-1.65-1.12-2.92-2.72-3.8-4.82-.88-2.09-1.32-4.59-1.32-7.49s.53-5.43,1.58-7.51c1.05-2.08,2.43-3.68,4.13-4.79,1.7-1.12,3.5-1.68,5.38-1.68,1.48,0,2.72.25,3.71.76.99.5,1.96,1.18,2.9,2.03l-.28-4.06v-9.12h7.65v37.69h-6.23l-.57-2.69h-.19c-.94.98-2.04,1.78-3.28,2.41-1.24.63-2.54.94-3.9.94ZM122.33,66.65c.88,0,1.68-.18,2.41-.54.72-.36,1.43-1,2.13-1.91v-11.1c-.72-.69-1.47-1.17-2.24-1.44-.77-.27-1.55-.4-2.34-.4-.85,0-1.65.28-2.41.85-.76.57-1.37,1.41-1.84,2.53-.47,1.12-.71,2.54-.71,4.27s.2,3.22.59,4.37c.39,1.15.97,2,1.72,2.55.76.55,1.65.83,2.69.83Z"/>
        <path class="cls-1" d="M141.65,72.32v-26.64h6.23l.57,3.45h.14c1.1-1.13,2.29-2.1,3.57-2.9,1.28-.8,2.79-1.2,4.56-1.2,1.89,0,3.42.39,4.58,1.16,1.16.77,2.08,1.88,2.74,3.33,1.2-1.23,2.46-2.28,3.8-3.16,1.34-.88,2.89-1.32,4.65-1.32,2.87,0,4.96.95,6.28,2.86,1.32,1.91,1.98,4.53,1.98,7.86v16.58h-7.65v-15.59c0-1.98-.27-3.34-.8-4.06-.54-.72-1.4-1.09-2.6-1.09-.66,0-1.39.22-2.17.66-.79.44-1.62,1.1-2.5,1.98v18.09h-7.65v-15.59c0-1.98-.28-3.34-.83-4.06-.55-.72-1.43-1.09-2.62-1.09-.66,0-1.39.22-2.17.66-.79.44-1.61,1.1-2.46,1.98v18.09h-7.65Z"/>
        <path class="cls-1" d="M187.65,72.32v-26.64h7.65v26.64h-7.65Z"/>
        <path class="cls-1" d="M202.43,72.32v-26.64h6.23l.57,3.4h.14c1.13-1.13,2.39-2.09,3.78-2.88,1.39-.79,2.99-1.18,4.82-1.18,2.9,0,5,.95,6.31,2.86,1.31,1.91,1.96,4.53,1.96,7.86v16.58h-7.65v-15.59c0-1.98-.28-3.34-.83-4.06-.55-.72-1.42-1.09-2.62-1.09-1.01,0-1.87.23-2.6.69-.72.46-1.54,1.11-2.46,1.96v18.09h-7.65Z"/>
        <path class="cls-1" d="M237.48,72.98c-1.32,0-2.42-.47-3.31-1.42-.88-.94-1.32-2.11-1.32-3.5s.44-2.53,1.32-3.45c.88-.91,1.98-1.37,3.31-1.37s2.47.46,3.35,1.37c.88.91,1.32,2.06,1.32,3.45s-.44,2.55-1.32,3.5c-.88.94-2,1.42-3.35,1.42Z"/>
        <path class="cls-1" d="M245.18,72.32l11.05-35.09h9.16l11.05,35.09h-8.08l-4.72-17.9c-.5-1.79-.99-3.68-1.46-5.64-.47-1.97-.94-3.86-1.42-5.69h-.19c-.44,1.86-.91,3.76-1.39,5.71-.49,1.95-.97,3.83-1.44,5.62l-4.72,17.9h-7.84ZM252.36,63.77v-5.95h16.81v5.95h-16.81Z"/>
        <path class="cls-1" d="M280.41,72.32v-35.09h7.7v35.09h-7.7Z"/>
      </g>
      <g>
        <path class="cls-1" d="M52.28,0H18.46v10.34c0,4.48-3.64,8.12-8.12,8.12H0v4.85c20.09-3.2,40.17-6.39,60.26-9.59v-5.75c0-4.4-3.57-7.97-7.97-7.97Z"/>
        <path class="cls-1" d="M0,31.17v39.32C0,74.81,3.51,78.31,7.83,78.31h44.6c4.32,0,7.83-3.51,7.83-7.83V23.24L0,31.17ZM35.22,43.34c0-1.35,1.09-2.44,2.44-2.44h12.7c.56,0,1.01.45,1.01,1.01v3.16c0,1.13-.91,2.04-2.04,2.04h-13.1c-.56,0-1.01-.45-1.01-1.01v-2.76ZM9.18,44.55v-8.93c0-1.3,1.05-2.35,2.35-2.35h11.58c2.6,0,4.7,2.11,4.7,4.7v6.57c0,1.3-1.05,2.35-2.35,2.35h-13.93c-1.3,0-2.35-1.05-2.35-2.35ZM52.13,62.04c0,4.46-3.62,8.08-8.08,8.08h-26.62c-4.14,0-7.49-3.36-7.49-7.49v-5.88c0-1.1.9-2,2-2h38.19c1.11,0,2,.9,2,2v5.3Z"/>
        <path class="cls-1" d="M79.56,13.32c-.2-.87-.41-1.75-.61-2.62-.68-2.9-3.55-4.73-6.47-4.1C48.32,11.77,24.16,16.94,0,22.12v4.75c25.74-3.39,51.48-6.77,77.22-10.16,1.63-.21,2.72-1.79,2.34-3.39Z"/>
        <path class="cls-1" d="M0,14.46h10.34c2.27,0,4.12-1.84,4.12-4.12V0L0,14.46Z"/>
      </g>
      <g>
        <path class="cls-1" d="M197.08,25.75l-2.09-.57c-.35-.1-.71.11-.81.46l-.51,1.86c-1.08-.34-2.22-.4-3.32-.18l-2.15-2.17c-.26-.26-.67-.26-.93,0l-1.53,1.52c-.26.26-.26.67,0,.93l1.36,1.37c-.06.06-.13.11-.19.17-.76.76-1.3,1.66-1.63,2.61l-2.95.78c-.35.09-.56.45-.47.8l.55,2.09c.09.35.45.56.8.47l1.87-.49c.24,1.07.74,2.08,1.5,2.96l-.8,2.95c-.1.35.11.71.46.81l2.09.57c.35.1.71-.11.81-.46l.51-1.86c1.08.34,2.22.4,3.32.18l2.15,2.17c.26.26.67.26.93,0l1.53-1.52c.26-.26.26-.67,0-.93l-1.36-1.37c.06-.06.13-.11.19-.17.76-.76,1.3-1.66,1.63-2.61l2.95-.78c.35-.09.56-.45.47-.8l-.55-2.09c-.09-.35-.45-.56-.8-.47l-1.87.49c-.24-1.07-.74-2.08-1.5-2.96l.8-2.95c.1-.35-.11-.71-.46-.81Z"/>
        <circle class="cls-2" cx="191.67" cy="33.94" r="2.49"/>
      </g>
    </g>
  </g>
</svg>